<?xml version="1.0" standalone="no"?>
<!DOCTYPE svg PUBLIC "-//W3C//DTD SVG 20010904//EN"
 "http://www.w3.org/TR/2001/REC-SVG-20010904/DTD/svg10.dtd">
<svg version="1.0" xmlns="http://www.w3.org/2000/svg"
 width="980.000000pt" height="980.000000pt" viewBox="0 0 980.000000 980.000000"
 preserveAspectRatio="xMidYMid meet">

<g transform="translate(0.000000,980.000000) scale(0.100000,-0.100000)"
fill="#000000" stroke="none">
<path d="M4530 9789 c-1031 -84 -1971 -466 -2770 -1127 -155 -129 -511 -487
-640 -645 -623 -760 -986 -1629 -1097 -2622 -28 -247 -25 -795 5 -1043 59
-487 165 -890 357 -1362 53 -130 216 -449 309 -603 225 -374 468 -680 792
-997 798 -779 1780 -1239 2919 -1367 246 -28 794 -25 1043 5 988 120 1841 488
2607 1124 140 116 417 389 550 543 919 1063 1332 2438 1155 3842 -50 390 -162
819 -312 1193 -120 299 -334 694 -525 968 -236 339 -626 757 -938 1008 -798
641 -1693 996 -2730 1084 -141 12 -574 11 -725 -1z m715 -459 c581 -49 1093
-191 1610 -445 464 -228 806 -475 1181 -849 371 -372 616 -712 844 -1171 239
-483 367 -916 435 -1470 23 -179 31 -634 16 -821 -73 -895 -388 -1707 -929
-2400 -148 -190 -130 -184 -192 -67 -88 170 -208 310 -365 426 -96 71 -188
118 -445 227 -907 383 -964 408 -1095 496 -131 86 -292 229 -336 297 -68 105
-72 129 -77 435 l-4 272 47 63 c59 79 133 233 175 362 43 136 72 185 162 281
114 122 159 223 199 444 25 142 39 493 20 538 -16 38 -60 62 -115 62 -25 0
-46 3 -46 8 0 7 114 641 190 1057 21 116 37 211 35 213 -2 2 -36 8 -77 13 -40
5 -78 12 -85 14 -8 3 -4 25 12 77 52 165 49 316 -7 334 -11 3 -20 4 -21 2 -1
-1 -17 -33 -34 -69 -54 -113 -119 -168 -150 -126 -5 6 -17 52 -27 100 -59 311
-280 580 -613 746 -96 48 -116 51 -108 19 5 -28 35 -235 35 -249 0 -5 -25 10
-56 35 -376 307 -801 400 -1189 262 -125 -45 -293 -143 -274 -160 2 -2 53 -28
113 -58 l108 -54 -78 -29 c-210 -75 -410 -192 -530 -310 -66 -65 -144 -170
-144 -195 0 -6 40 -10 110 -10 61 0 110 -3 110 -6 0 -3 -25 -28 -56 -56 -297
-272 -351 -768 -148 -1376 30 -90 54 -165 54 -168 0 -2 -31 -4 -68 -4 -74 0
-107 -18 -116 -63 -12 -60 -15 -247 -6 -377 20 -286 77 -450 209 -608 74 -90
106 -154 141 -287 40 -148 147 -343 234 -424 l26 -24 0 -221 c0 -294 -15 -362
-107 -488 -41 -57 -317 -301 -364 -323 -19 -8 -110 -44 -204 -81 -748 -288
-994 -387 -1085 -435 -121 -63 -231 -144 -337 -250 -128 -127 -251 -311 -268
-402 -4 -20 -10 -37 -14 -36 -7 0 -146 172 -214 265 -420 572 -698 1229 -811
1919 -53 323 -70 764 -42 1089 97 1109 580 2101 1401 2873 697 656 1635 1083
2575 1172 63 6 131 13 150 14 84 9 536 6 645 -3z"/>
</g>
</svg>
