<?xml version="1.0" standalone="no"?>
<!DOCTYPE svg PUBLIC "-//W3C//DTD SVG 20010904//EN"
 "http://www.w3.org/TR/2001/REC-SVG-20010904/DTD/svg10.dtd">
<svg version="1.0" xmlns="http://www.w3.org/2000/svg"
 width="20.000000pt" height="20.000000pt" viewBox="0 0 512.000000 512.000000"
 preserveAspectRatio="xMidYMid meet">

<g transform="translate(0.000000,512.000000) scale(0.100000,-0.100000)"
fill="#000000" stroke="none">
<path d="M2274 5109 c-266 -24 -557 -121 -798 -267 -418 -252 -738 -686 -855
-1157 -66 -265 -73 -566 -20 -830 93 -467 380 -908 765 -1175 l70 -49 144 144
c79 79 142 146 140 149 -3 2 -47 32 -98 66 -338 225 -581 612 -642 1020 -25
169 -11 412 35 590 234 917 1272 1384 2117 953 472 -240 775 -697 815 -1229
l8 -99 95 0 95 0 12 60 c7 33 21 121 32 196 22 150 30 177 67 230 l24 35 -30
90 c-64 189 -189 416 -317 574 -80 99 -249 262 -344 333 -384 283 -835 409
-1315 366z"/>
<path d="M2380 4399 c-35 -14 -78 -57 -101 -101 -18 -35 -19 -65 -19 -578 0
-587 -1 -577 56 -633 65 -65 27 -62 709 -62 587 0 622 1 655 19 50 26 69 46
92 91 48 93 13 208 -80 262 l-47 28 -492 3 -493 3 0 402 c0 246 -4 416 -10
439 -23 82 -102 138 -192 137 -29 0 -64 -5 -78 -10z"/>
<path d="M4415 3616 c-48 -21 -56 -39 -75 -168 -71 -491 -201 -821 -458 -1166
-399 -536 -1004 -870 -1659 -917 l-91 -6 -4 248 c-3 269 -6 281 -60 309 -64
33 -60 37 -548 -451 l-455 -455 0 -45 0 -45 458 -457 457 -458 45 0 c54 0 82
24 95 81 5 21 10 144 10 271 l0 233 23 5 c12 2 81 16 152 30 279 54 590 173
854 325 713 410 1223 1135 1355 1925 34 205 46 373 39 544 -6 137 -7 146 -32
172 -32 33 -67 42 -106 25z"/>
</g>
</svg>
