<?xml version="1.0" standalone="no"?>
<!DOCTYPE svg PUBLIC "-//W3C//DTD SVG 20010904//EN"
 "http://www.w3.org/TR/2001/REC-SVG-20010904/DTD/svg10.dtd">
<svg version="1.0" xmlns="http://www.w3.org/2000/svg"
 width="286.000000pt" height="150.000000pt" viewBox="0 0 286.000000 150.000000"
 preserveAspectRatio="xMidYMid meet">

<g transform="translate(0.000000,150.000000) scale(0.100000,-0.100000)"
   stroke="none">
<path d="M2102 1343 l-152 -95 2 -181 3 -182 150 -92 c83 -50 155 -92 161 -92
6 -1 81 41 165 92 l154 93 3 181 2 181 -152 92 c-84 51 -159 94 -168 96 -8 1
-84 -40 -168 -93z m261 21 c50 -31 116 -71 145 -88 51 -29 52 -31 32 -46 -11
-8 -41 -27 -67 -41 l-48 -27 -142 86 c-79 48 -143 89 -143 92 0 4 120 80 128
80 1 0 44 -25 95 -56z m-103 -124 c74 -45 137 -84 139 -86 6 -6 -25 -27 -84
-59 l-50 -27 -130 77 c-71 43 -136 83 -143 90 -11 10 0 20 55 53 37 22 70 39
73 37 3 -1 66 -40 140 -85z m-137 -108 l137 -83 0 -160 c0 -87 -3 -159 -6
-159 -4 0 -69 37 -145 83 l-138 82 -1 163 c0 90 3 162 8 160 4 -1 69 -40 145
-86z m445 -74 l-3 -162 -135 -83 c-74 -45 -138 -82 -143 -83 -4 0 -6 73 -5
162 l3 161 135 83 c74 46 138 83 143 83 4 1 6 -72 5 -161z"/>
<path d="M2353 1049 c-28 -18 -33 -27 -33 -60 l0 -40 40 23 c35 20 40 27 40
61 0 43 -4 44 -47 16z m27 -27 c0 -21 -36 -46 -46 -31 -6 11 23 49 38 49 4 0
8 -8 8 -18z"/>
<path d="M90 1055 l0 -265 78 -2 c153 -5 178 -2 226 26 63 37 98 110 104 218
6 109 -11 180 -55 229 -45 50 -80 59 -230 59 l-123 0 0 -265z m219 166 c27
-27 33 -71 29 -194 -3 -118 -21 -159 -71 -165 l-27 -3 0 190 0 191 25 0 c14 0
34 -9 44 -19z"/>
<path d="M762 1170 c-37 -9 -69 -33 -77 -61 -10 -29 -25 -12 -25 27 0 30 -3
34 -26 34 -14 0 -45 -5 -70 -11 -36 -9 -44 -16 -44 -34 0 -12 7 -28 15 -35 12
-10 15 -41 15 -156 l0 -144 75 0 75 0 0 105 c0 96 2 105 21 116 12 6 34 9 49
7 28 -4 28 -4 34 70 4 41 3 78 -1 82 -4 4 -23 4 -41 0z"/>
<path d="M937 1166 c-80 -29 -111 -91 -106 -209 7 -126 62 -177 193 -177 109
0 175 37 197 111 18 57 8 182 -17 216 -47 65 -172 93 -267 59z m133 -188 c0
-110 -9 -148 -35 -148 -36 0 -45 28 -45 148 0 64 4 122 8 128 14 21 37 22 55
2 14 -17 17 -40 17 -130z"/>
<path d="M1460 1163 c-17 -12 -25 -13 -28 -5 -5 15 -69 15 -128 1 -38 -10 -44
-15 -44 -38 0 -15 4 -31 10 -37 6 -6 11 -185 12 -474 l3 -465 73 -3 72 -3 0
111 0 110 60 0 60 0 0 -110 0 -110 75 0 75 0 0 265 0 265 -75 0 -75 0 0 -105
0 -106 -57 3 -58 3 -3 166 -2 166 70 -5 70 -5 39 39 c61 62 77 181 37 279 -28
66 -129 98 -186 58z m34 -85 c20 -28 22 -161 3 -198 -8 -16 -23 -26 -40 -28
l-27 -3 0 119 c0 65 3 122 7 125 13 14 42 6 57 -15z"/>
<path d="M1797 702 c-20 -21 -37 -41 -37 -46 0 -14 63 -86 76 -86 14 0 84 70
84 85 0 11 -71 85 -81 85 -3 0 -22 -17 -42 -38z"/>
<path d="M2450 527 c-87 -30 -123 -87 -123 -191 0 -114 37 -170 130 -195 49
-13 113 -6 164 20 50 25 63 43 49 68 -13 25 -9 25 -53 6 -78 -32 -137 -10
-137 52 0 22 2 23 106 23 l107 0 -6 65 c-8 78 -27 119 -68 141 -41 21 -125 27
-169 11z m94 -69 c3 -13 6 -35 6 -50 0 -25 -3 -28 -35 -28 -33 0 -35 2 -35 34
0 49 9 66 35 66 15 0 25 -8 29 -22z"/>
<path d="M1785 516 c-45 -14 -58 -45 -32 -74 12 -13 15 -47 15 -157 l0 -140
71 -3 71 -3 0 196 0 195 -42 -1 c-24 -1 -61 -7 -83 -13z"/>
<path d="M1932 518 c3 -7 33 -95 68 -196 l63 -183 71 3 70 3 58 190 c32 105
58 191 58 193 0 1 -27 2 -60 2 -40 0 -62 -4 -66 -13 -2 -7 -15 -62 -28 -122
-13 -61 -26 -103 -29 -95 -3 8 -13 56 -22 105 -25 137 -15 125 -107 125 -60 0
-79 -3 -76 -12z"/>
</g>
</svg>
